#!OML:ASF I:\Actors\actors\Patient Classification 2\Patient 1\Session 1\actor1.ASF
:FULLY-SPECIFIED
:DEGREES
490
root -0.0322492 18.5078 5.11021 6.92443 8.28825 -1.18719
lowerback 23.257 0.561816 0.800626
upperback 4.13486 0.850288 -1.0039
thorax -8.3929 0.380756 -1.81458
lowerneck -23.2334 -4.85794 -3.42929
upperneck 11.506 -5.81966 2.0555
head 7.44471 -2.7336 0.477975
rclavicle -1.68967e-015 -3.49861e-014
rhumerus -2.66868 12.9157 -65.6679
rradius 75.9077
rwrist -40.8814
rhand -21.8715 -54.745
rfingers 7.12502
rthumb 4.53283 -84.6765
lclavicle -1.68967e-015 -3.49861e-014
lhumerus 8.86903 -12.7126 82.1622
lradius 65.0616
lwrist 37.0063
lhand -13.4225 -11.3623
lfingers 7.12502
lthumb 12.6859 18.2324
rfemur -9.31278 -6.11149 13.2584
rtibia 18.6282
rfoot -21.3178 -10.8359
rtoes -11.6234
lfemur -23.505 -0.289872 -14.5574
ltibia 35.5474
lfoot -18.2666 0.751659
ltoes -55.7687
491
root -0.0397124 18.5166 5.13615 6.72742 8.07291 -1.19576
lowerback 22.9571 0.587991 0.799715
upperback 4.04291 0.877376 -1.05139
thorax -8.33531 0.392812 -1.86955
lowerneck -23.1985 -4.8825 -3.37356
upperneck 11.4044 -5.89027 2.17648
head 7.40953 -2.75328 0.501818
rclavicle 3.16068e-014 -8.34896e-015
rhumerus -3.10368 13.1996 -65.8644
rradius 75.8227
rwrist -40.6377
rhand -21.6162 -54.3596
rfingers 7.12502
rthumb 4.77934 -84.2857
lclavicle 3.16068e-014 -8.34896e-015
lhumerus 8.19485 -12.7844 81.9568
lradius 65.1788
lwrist 37.2581
lhand -13.4183 -11.0516
lfingers 7.12502
lthumb 12.69 18.5428
rfemur -8.8399 -5.84246 13.2747
rtibia 18.2125
rfoot -21.235 -11.0396
rtoes -11.9388
lfemur -22.9932 -0.214017 -14.5348
ltibia 35.2381
lfoot -18.2714 0.937789
ltoes -55.9044
492
root -0.045807 18.5257 5.16169 6.51652 7.87887 -1.20063
lowerback 22.6384 0.60353 0.76367
upperback 3.96898 0.885448 -1.06941
thorax -8.24917 0.397622 -1.86562
lowerneck -23.1778 -4.90403 -3.47229
upperneck 11.332 -5.93511 2.44988
head 7.39575 -2.75218 0.60295
rclavicle 8.54774e-015 -1.98785e-015
rhumerus -3.53451 13.5171 -66.0552
rradius 75.7097
rwrist -40.1918
rhand -21.3753 -53.9764
rfingers 7.12502
rthumb 5.01195 -83.8971
lclavicle 8.54774e-015 -1.98785e-015
lhumerus 7.51562 -12.6996 81.8508
lradius 65.258
lwrist 37.1678
lhand -13.3363 -10.8411
lfingers 7.12502
lthumb 12.769 18.7485
rfemur -8.37224 -5.5735 13.2785
rtibia 17.8476
rfoot -21.13 -11.1942
rtoes -12.1001
lfemur -22.4616 -0.208201 -14.5078
ltibia 34.9265
lfoot -18.3036 1.11856
ltoes -56.0012
493
root -0.0527351 18.533 5.18456 6.31025 7.60416 -1.06962
lowerback 22.3382 0.668471 0.507681
upperback 3.89863 0.906572 -1.08769
thorax -8.17143 0.414305 -1.73997
lowerneck -23.1766 -4.93641 -3.7102
upperneck 11.2773 -5.96931 2.83021
head 7.39886 -2.74135 0.762016
rclavicle 9.74045e-015 1.23246e-014
rhumerus -3.94605 13.8885 -66.1798
rradius 75.5927
rwrist -39.8029
rhand -21.3196 -53.84
rfingers 7.12502
rthumb 5.06578 -83.7595
lclavicle 9.74045e-015 1.23246e-014
lhumerus 6.79545 -12.5658 81.7752
lradius 65.3891
lwrist 36.9988
lhand -13.2494 -10.6528
lfingers 7.12502
lthumb 12.8527 18.9315
rfemur -7.91267 -5.19103 13.1244
rtibia 17.4631
rfoot -21.071 -11.3247
rtoes -11.7626
lfemur -21.9109 -0.1869 -14.629
ltibia 34.6202
lfoot -18.3478 1.31146
ltoes -56.0406
494
root -0.0609938 18.5407 5.20582 6.10242 7.26924 -0.871073
lowerback 22.1245 0.766533 0.189868
upperback 3.76263 0.95499 -1.12742
thorax -8.21123 0.44393 -1.61299
lowerneck -23.024 -4.90354 -3.50797
upperneck 11.1527 -5.96703 2.69705
head 7.32228 -2.74692 0.690842
rclavicle 7.55382e-015 -1.47101e-014
rhumerus -4.47044 14.3003 -66.3206
rradius 75.4453
rwrist -39.4939
rhand -21.4232 -53.7371
rfingers 7.12502
rthumb 4.96571 -83.6589
lclavicle 7.55382e-015 -1.47101e-014
lhumerus 6.01395 -12.4424 81.7454
lradius 65.4025
lwrist 36.8416
lhand -13.0621 -10.5159
lfingers 7.12502
lthumb 13.0333 19.0569
rfemur -7.43334 -4.8026 12.9046
rtibia 17.0116
rfoot -20.9958 -11.4726
rtoes -11.4353
lfemur -21.3617 -0.158776 -14.8275
ltibia 34.3269
lfoot -18.3752 1.58359
ltoes -56.1305
